<svg width="24" height="24" viewBox="0 0 24 24" fill="none" xmlns="http://www.w3.org/2000/svg">
<path d="M7.25 12C7.25 12.9665 6.4665 13.75 5.5 13.75C4.5335 13.75 3.75 12.9665 3.75 12C3.75 11.0335 4.5335 10.25 5.5 10.25C6.4665 10.25 7.25 11.0335 7.25 12Z" fill="#292556"/>
<path d="M13.75 12C13.75 12.9665 12.9665 13.75 12 13.75C11.0335 13.75 10.25 12.9665 10.25 12C10.25 11.0335 11.0335 10.25 12 10.25C12.9665 10.25 13.75 11.0335 13.75 12Z" fill="#292556"/>
<path d="M20.25 12C20.25 12.9665 19.4665 13.75 18.5 13.75C17.5335 13.75 16.75 12.9665 16.75 12C16.75 11.0335 17.5335 10.25 18.5 10.25C19.4665 10.25 20.25 11.0335 20.25 12Z" fill="#292556"/>
</svg>
