<?xml version="1.0" encoding="iso-8859-1"?>
<!-- Uploaded to: SVG Repo, www.svgrepo.com, Generator: SVG Repo Mixer Tools -->
<svg xmlns="http://www.w3.org/2000/svg" xmlns:xlink="http://www.w3.org/1999/xlink" version="1.1" id="Layer_1"  viewBox="0 0 449.15 449.15" xml:space="preserve" width="512" height="512">
<g>
	<path style="fill:#B27214;" d="M431.448,231.718l-25.93,102.73c-2.1,8.31-9.57,14.13-18.14,14.13H61.768   c-8.57,0-16.04-5.82-18.14-14.13l-25.93-102.73c1.71,0.93,3.45,2.15,5.64,3.68c7.87,5.53,18.65,13.11,38.43,13.11   s30.56-7.58,38.43-13.11c5.83-4.09,8.48-5.96,15.84-5.96c7.35,0,10.01,1.87,15.83,5.96c7.87,5.53,18.65,13.11,38.43,13.11   s30.56-7.58,38.43-13.11c5.83-4.09,8.49-5.96,15.84-5.96c7.35,0,10.01,1.87,15.83,5.96c7.87,5.53,18.65,13.11,38.44,13.11   c19.78,0,30.56-7.58,38.43-13.11c5.82-4.09,8.48-5.96,15.83-5.96c7.36,0,10.02,1.87,15.84,5.96c7.87,5.53,18.66,13.11,38.44,13.11   s30.56-7.58,38.43-13.11C427.998,233.868,429.738,232.648,431.448,231.718z"/>
	<g>
		<path style="fill:#995C0D;" d="M125.628,334.448l-25.066-99.305c-0.123,0.086-0.239,0.167-0.364,0.255    c-7.87,5.53-18.65,13.11-38.43,13.11s-30.56-7.58-38.43-13.11c-2.19-1.53-3.93-2.75-5.64-3.68l25.93,102.729    c2.1,8.31,9.57,14.13,18.14,14.13h82C135.198,348.578,127.728,342.758,125.628,334.448z"/>
	</g>
	<path style="fill:#E09B2D;" d="M441.648,214.168v0.82c0,7.05-4.01,13.37-10.2,16.73c-1.71,0.93-3.45,2.15-5.64,3.68   c-7.87,5.53-18.65,13.11-38.43,13.11c-19.78,0-30.57-7.58-38.44-13.11c-5.82-4.09-8.48-5.96-15.84-5.96   c-7.35,0-10.01,1.87-15.83,5.96c-7.87,5.53-18.65,13.11-38.43,13.11c-19.79,0-30.57-7.58-38.44-13.11   c-5.82-4.09-8.48-5.96-15.83-5.96c-7.35,0-10.01,1.87-15.84,5.96c-7.87,5.53-18.65,13.11-38.43,13.11   c-19.78,0-30.56-7.58-38.43-13.11c-5.82-4.09-8.48-5.96-15.83-5.96c-6.21,0-9.07,1.33-13.32,4.21c-0.78,0.53-1.61,1.12-2.52,1.75   c-7.87,5.53-18.65,13.11-38.43,13.11c-19.78,0-30.56-7.58-38.43-13.11c-2.19-1.53-3.93-2.75-5.64-3.68   c-6.19-3.36-10.2-9.68-10.2-16.73v-0.82c0-14.74,15.76-24.15,28.73-17.14c3.17,1.71,5.9,3.55,8.33,5.25   c0.47,0.32,0.92,0.64,1.37,0.95c5.83,4.09,8.49,5.96,15.84,5.96s10.01-1.87,15.83-5.96c7.09-4.98,16.54-11.61,32.8-12.88   c1.79-0.15,3.67-0.22,5.64-0.22c19.78,0,30.56,7.57,38.43,13.1c5.82,4.09,8.48,5.96,15.83,5.96c7.35,0,10.01-1.87,15.84-5.96   c7.87-5.53,18.65-13.1,38.43-13.1c19.78,0,30.56,7.57,38.43,13.1c5.83,4.09,8.48,5.96,15.84,5.96c7.35,0,10.01-1.87,15.83-5.96   c7.87-5.53,18.65-13.1,38.43-13.1c19.79,0,30.57,7.57,38.44,13.1c5.82,4.09,8.48,5.96,15.84,5.96c7.35,0,10.01-1.87,15.84-5.96   c0.44-0.31,0.89-0.62,1.35-0.94c2.44-1.7,5.17-3.54,8.35-5.26C425.898,190.018,441.648,199.428,441.648,214.168z"/>
	<path style="fill:#F7B239;" d="M404.568,202.278v0.01c-0.46,0.32-0.91,0.63-1.35,0.94c-5.83,4.09-8.49,5.96-15.84,5.96   c-7.36,0-10.02-1.87-15.84-5.96c-7.87-5.53-18.65-13.1-38.44-13.1c-19.78,0-30.56,7.57-38.43,13.1c-5.82,4.09-8.48,5.96-15.83,5.96   c-7.36,0-10.01-1.87-15.84-5.96c-7.87-5.53-18.65-13.1-38.43-13.1s-30.56,7.57-38.43,13.1c-5.83,4.09-8.49,5.96-15.84,5.96   s-10.01-1.87-15.83-5.96c-7.87-5.53-18.65-13.1-38.43-13.1s-30.57,7.57-38.44,13.1c-5.82,4.09-8.48,5.96-15.83,5.96   s-10.01-1.87-15.84-5.96c-0.45-0.31-0.9-0.63-1.37-0.95c36.78-60.95,103.64-101.7,180.01-101.7   C300.948,100.578,367.808,141.328,404.568,202.278z"/>
	<path style="fill:#CC8A29;" d="M102.718,233.648c-0.78,0.53-1.61,1.12-2.52,1.75c-7.87,5.53-18.65,13.11-38.43,13.11   c-19.78,0-30.56-7.58-38.43-13.11c-2.19-1.53-3.93-2.75-5.64-3.68c-6.19-3.36-10.2-9.68-10.2-16.73v-0.82   c0-14.74,15.76-24.15,28.73-17.14c3.17,1.71,5.9,3.55,8.33,5.25c0.47,0.32,0.92,0.64,1.37,0.95c5.83,4.09,8.49,5.96,15.84,5.96   s10.01-1.87,15.83-5.96c7.09-4.98,16.54-11.61,32.8-12.88C105.018,201.118,100.028,216.488,102.718,233.648z"/>
	<path style="fill:#E09B2D;" d="M132.138,192.048c-4.61-1.18-9.91-1.92-16.1-1.92c-19.78,0-30.57,7.57-38.44,13.1   c-5.82,4.09-8.48,5.96-15.83,5.96s-10.01-1.87-15.84-5.96c-0.45-0.31-0.9-0.63-1.37-0.95c36.78-60.95,103.64-101.7,180.01-101.7   c13.86,0,27.4,1.34,40.5,3.91C210.048,115.228,162.718,147.438,132.138,192.048z"/>
	<path style="fill:#FFFFFF;" d="M348.606,178.111c-1.769,0-3.545-0.622-4.973-1.889c-9.085-8.056-18.995-15.199-29.452-21.233   c-4.327-2.497-8.815-4.838-13.34-6.959c-3.75-1.758-5.366-6.224-3.608-9.974c1.757-3.752,6.224-5.366,9.974-3.608   c4.908,2.301,9.776,4.84,14.471,7.549c11.331,6.538,22.066,14.277,31.906,23.003c3.1,2.748,3.384,7.488,0.636,10.587   C352.739,177.259,350.678,178.111,348.606,178.111z"/>
	<path style="fill:#FFFFFF;" d="M383.918,335.647c-0.57,0-1.149-0.065-1.729-0.202c-4.032-0.951-6.529-4.99-5.577-9.022l14-59.334   c0.951-4.031,4.99-6.531,9.021-5.577c4.032,0.951,6.529,4.99,5.577,9.022l-14,59.334   C390.396,333.32,387.317,335.647,383.918,335.647z"/>
	<g>
		<path style="fill:#333333;" d="M435.987,190.998c-8.238-4.913-18.193-5.127-26.629-0.571c-0.865,0.467-1.692,0.943-2.498,1.42    c-18.702-28.635-44.037-52.662-73.687-69.772c-32.875-18.972-70.429-29-108.603-29c-38.172,0-75.727,10.028-108.604,29    c-29.648,17.109-54.984,41.133-73.691,69.766c-0.8-0.474-1.622-0.947-2.48-1.41c-8.438-4.558-18.393-4.346-26.63,0.568    C4.921,195.915,0,204.578,0,214.173v0.816c0,8.505,4.204,16.449,11.161,21.454l25.196,99.838    c2.941,11.654,13.39,19.794,25.409,19.794H387.38c12.02,0,22.469-8.14,25.409-19.794l25.197-99.838    c6.959-5.006,11.164-12.952,11.164-21.458v-0.813C449.15,204.577,444.229,195.915,435.987,190.998z M123.464,135.067    c30.6-17.658,65.562-26.992,101.106-26.992c35.545,0,70.506,9.334,101.105,26.992c27.64,15.951,51.255,38.354,68.677,65.058    c-2.17,1.235-3.784,1.565-6.977,1.565c-4.982,0-6.109-0.791-11.527-4.596c-8.2-5.761-20.592-14.466-42.747-14.466    c-22.153,0-34.545,8.706-42.749,14.47c-5.412,3.801-6.539,4.592-11.518,4.592c-4.981,0-6.107-0.791-11.523-4.596    c-8.2-5.761-20.592-14.466-42.745-14.466c-22.153,0-34.544,8.706-42.749,14.47c-5.412,3.801-6.538,4.592-11.517,4.592    c-4.979,0-6.105-0.791-11.521-4.595c-8.199-5.761-20.59-14.467-42.744-14.467c-22.156,0-34.546,8.705-42.748,14.468    c-5.414,3.803-6.54,4.594-11.521,4.594c-3.197,0-4.809-0.331-6.984-1.571C72.209,173.418,95.826,151.016,123.464,135.067z     M15,214.173c0-4.26,2.186-8.107,5.848-10.291c3.658-2.182,8.076-2.275,11.818-0.254c3.392,1.832,6.22,3.819,8.962,5.746    c6.273,4.406,10.418,7.316,20.138,7.316c9.722,0,13.868-2.912,20.147-7.322c7.444-5.23,16.708-11.739,34.122-11.739    c17.411,0,26.676,6.51,34.127,11.745c6.273,4.406,10.418,7.316,20.138,7.316c9.72,0,13.865-2.91,20.145-7.321    c7.445-5.23,16.711-11.74,34.121-11.74c17.411,0,26.677,6.51,34.125,11.741c6.275,4.408,10.42,7.32,20.143,7.32    c9.72,0,13.865-2.91,20.145-7.321c7.445-5.23,16.711-11.74,34.122-11.74c17.413,0,26.679,6.51,34.13,11.743    c6.275,4.407,10.42,7.318,20.144,7.318c9.724,0,13.87-2.912,20.151-7.322c2.735-1.922,5.563-3.909,8.958-5.742    c3.742-2.022,8.161-1.927,11.818,0.255c3.661,2.184,5.847,6.03,5.847,10.29v0.813c0,4.151-2.408,8.037-6.286,10.143    c-2.085,1.133-4.065,2.522-6.365,4.138c-7.445,5.23-16.71,11.739-34.124,11.739s-26.679-6.509-34.125-11.74    c-6.277-4.408-10.423-7.321-20.15-7.321c-9.723,0-13.869,2.912-20.146,7.321c-7.443,5.23-16.708,11.74-34.121,11.74    c-17.411,0-26.677-6.51-34.122-11.739c-6.275-4.409-10.421-7.322-20.146-7.322c-9.723,0-13.868,2.912-20.147,7.323    c-7.445,5.229-16.711,11.738-34.119,11.738c-17.408,0-26.674-6.509-34.122-11.741c-6.275-4.408-10.421-7.32-20.143-7.32    c-9.725,0-13.871,2.913-20.146,7.322c-7.444,5.23-16.708,11.739-34.122,11.739c-17.407,0-26.673-6.509-34.122-11.74    c-2.293-1.611-4.273-3.002-6.363-4.137C17.407,223.022,15,219.138,15,214.989V214.173z M398.245,332.611    c-1.257,4.983-5.726,8.464-10.865,8.464H61.766c-5.14,0-9.607-3.48-10.865-8.464l-21.284-84.334    c7.659,4.112,17.876,7.727,32.149,7.727c22.156,0,34.546-8.705,42.745-14.466c5.415-3.804,6.541-4.596,11.523-4.596    c4.98,0,6.107,0.791,11.524,4.597c8.2,5.76,20.591,14.465,42.741,14.465c22.149,0,34.541-8.704,42.745-14.467    c5.414-3.804,6.541-4.595,11.521-4.595c4.982,0,6.109,0.792,11.523,4.596c8.2,5.761,20.592,14.466,42.745,14.466    c22.156,0,34.546-8.706,42.744-14.467c5.415-3.803,6.542-4.595,11.523-4.595c4.985,0,6.112,0.792,11.527,4.596    c8.2,5.761,20.591,14.466,42.747,14.466c14.276,0,24.494-3.615,32.154-7.728L398.245,332.611z"/>
		<path style="fill:#333333;" d="M224.57,152.356c4.142,0,7.5-3.357,7.5-7.5v-16.679c0-4.143-3.358-7.5-7.5-7.5s-7.5,3.357-7.5,7.5    v16.679C217.07,148.999,220.428,152.356,224.57,152.356z"/>
		<path style="fill:#333333;" d="M266.957,144.393l14.296,5.956c0.943,0.394,1.92,0.579,2.881,0.579    c2.938,0,5.726-1.737,6.926-4.617c1.593-3.824-0.215-8.215-4.039-9.808l-14.296-5.956c-3.824-1.596-8.214,0.215-9.808,4.038    C261.325,138.41,263.133,142.801,266.957,144.393z"/>
		<path style="fill:#333333;" d="M165.007,150.928c0.961,0,1.939-0.187,2.881-0.579l14.296-5.956    c3.824-1.593,5.632-5.983,4.039-9.808c-1.594-3.824-5.985-5.631-9.808-4.038l-14.296,5.956c-3.824,1.593-5.632,5.983-4.039,9.808    C159.281,149.192,162.069,150.928,165.007,150.928z"/>
	</g>
</g>















</svg>